<mxfile host="app.diagrams.net" agent="Mozilla/5.0 (Windows NT 10.0; Win64; x64) AppleWebKit/537.36 (KHTML, like Gecko) Chrome/140.0.0.0 Safari/537.36" version="28.2.5">
  <diagram name="PÃ¡gina-1" id="-fPCDRTNLiotAz_nvzGO">
    <mxGraphModel grid="1" page="1" gridSize="10" guides="1" tooltips="1" connect="1" arrows="1" fold="1" pageScale="1" pageWidth="1169" pageHeight="827" background="light-dark(#FFFFFF,#FFFFFF)" math="0" shadow="0">
      <root>
        <mxCell id="0" />
        <mxCell id="1" parent="0" />
        <mxCell id="eqKTQkAIwk5ydLmsgt9G-2" value="Codigo" style="ellipse;whiteSpace=wrap;html=1;aspect=fixed;fillStyle=solid;gradientColor=none;fillColor=default;" vertex="1" parent="1">
          <mxGeometry x="440" y="180" width="40" height="40" as="geometry" />
        </mxCell>
        <mxCell id="eqKTQkAIwk5ydLmsgt9G-3" value="&lt;font style=&quot;color: light-dark(rgb(0, 0, 0), rgb(0, 0, 0));&quot;&gt;Nombre&lt;/font&gt;" style="ellipse;whiteSpace=wrap;html=1;aspect=fixed;fillColor=light-dark(#FFFFFF,#FFFFFF);strokeColor=light-dark(#000000,#000000);" vertex="1" parent="1">
          <mxGeometry x="480" y="170" width="40" height="40" as="geometry" />
        </mxCell>
        <mxCell id="eqKTQkAIwk5ydLmsgt9G-6" value="&lt;font style=&quot;color: light-dark(rgb(0, 0, 0), rgb(0, 0, 0));&quot;&gt;Medicamento&lt;/font&gt;" style="rounded=0;whiteSpace=wrap;html=1;fillColor=light-dark(#FFFFFF,#FFFFFF);strokeColor=light-dark(#000000,#000000);" vertex="1" parent="1">
          <mxGeometry x="490" y="240" width="120" height="60" as="geometry" />
        </mxCell>
        <mxCell id="eqKTQkAIwk5ydLmsgt9G-7" style="edgeStyle=orthogonalEdgeStyle;rounded=0;orthogonalLoop=1;jettySize=auto;html=1;exitX=0.5;exitY=1;exitDx=0;exitDy=0;" edge="1" parent="1" source="eqKTQkAIwk5ydLmsgt9G-2" target="eqKTQkAIwk5ydLmsgt9G-2">
          <mxGeometry relative="1" as="geometry" />
        </mxCell>
        <mxCell id="eqKTQkAIwk5ydLmsgt9G-13" style="edgeStyle=orthogonalEdgeStyle;rounded=0;orthogonalLoop=1;jettySize=auto;html=1;exitX=1;exitY=0;exitDx=0;exitDy=0;" edge="1" parent="1" source="eqKTQkAIwk5ydLmsgt9G-8">
          <mxGeometry relative="1" as="geometry">
            <mxPoint x="690" y="250" as="targetPoint" />
            <Array as="points">
              <mxPoint x="700" y="196" />
              <mxPoint x="700" y="250" />
            </Array>
          </mxGeometry>
        </mxCell>
        <mxCell id="eqKTQkAIwk5ydLmsgt9G-8" value="&lt;font style=&quot;color: light-dark(rgb(0, 0, 0), rgb(0, 0, 0));&quot;&gt;U.Vendidas&lt;/font&gt;" style="ellipse;whiteSpace=wrap;html=1;aspect=fixed;fillColor=light-dark(#FFFFFF,#FFFFFF);strokeColor=light-dark(#000000,#000000);" vertex="1" parent="1">
          <mxGeometry x="640" y="190" width="40" height="40" as="geometry" />
        </mxCell>
        <mxCell id="eqKTQkAIwk5ydLmsgt9G-9" value="&lt;font style=&quot;color: light-dark(rgb(0, 0, 0), rgb(0, 0, 0));&quot;&gt;Stock&lt;/font&gt;" style="ellipse;whiteSpace=wrap;html=1;aspect=fixed;fillColor=light-dark(#FFFFFF,#FFFFFF);strokeColor=light-dark(#000000,#000000);" vertex="1" parent="1">
          <mxGeometry x="560" y="160" width="40" height="40" as="geometry" />
        </mxCell>
        <mxCell id="eqKTQkAIwk5ydLmsgt9G-14" style="edgeStyle=orthogonalEdgeStyle;rounded=0;orthogonalLoop=1;jettySize=auto;html=1;exitX=0.5;exitY=1;exitDx=0;exitDy=0;" edge="1" parent="1" source="eqKTQkAIwk5ydLmsgt9G-11">
          <mxGeometry relative="1" as="geometry">
            <mxPoint x="650" y="250" as="targetPoint" />
          </mxGeometry>
        </mxCell>
        <mxCell id="eqKTQkAIwk5ydLmsgt9G-11" value="&lt;font style=&quot;color: light-dark(rgb(0, 0, 0), rgb(0, 0, 0));&quot;&gt;Precio&lt;/font&gt;" style="ellipse;whiteSpace=wrap;html=1;aspect=fixed;fillColor=light-dark(#FFFFFF,#FFFFFF);strokeColor=light-dark(#000000,#000000);" vertex="1" parent="1">
          <mxGeometry x="600" y="170" width="40" height="40" as="geometry" />
        </mxCell>
        <mxCell id="eqKTQkAIwk5ydLmsgt9G-12" value="&lt;font style=&quot;color: light-dark(rgb(0, 0, 0), rgb(0, 0, 0));&quot;&gt;Tipo&lt;/font&gt;&lt;div&gt;&lt;font style=&quot;color: light-dark(rgb(0, 0, 0), rgb(0, 0, 0));&quot;&gt;Forma&lt;/font&gt;&lt;/div&gt;" style="ellipse;whiteSpace=wrap;html=1;aspect=fixed;fillColor=light-dark(#FFFFFF,#FFFFFF);strokeColor=light-dark(#000000,#000000);" vertex="1" parent="1">
          <mxGeometry x="520" y="160" width="40" height="40" as="geometry" />
        </mxCell>
        <mxCell id="eqKTQkAIwk5ydLmsgt9G-17" value="" style="endArrow=none;html=1;rounded=0;entryX=1;entryY=1;entryDx=0;entryDy=0;exitX=0;exitY=0;exitDx=0;exitDy=0;strokeColor=light-dark(#000000,#000000);" edge="1" parent="1" source="eqKTQkAIwk5ydLmsgt9G-6" target="eqKTQkAIwk5ydLmsgt9G-2">
          <mxGeometry width="50" height="50" relative="1" as="geometry">
            <mxPoint x="540" y="440" as="sourcePoint" />
            <mxPoint x="590" y="390" as="targetPoint" />
          </mxGeometry>
        </mxCell>
        <mxCell id="eqKTQkAIwk5ydLmsgt9G-18" value="" style="endArrow=none;html=1;rounded=0;entryX=0.65;entryY=0.983;entryDx=0;entryDy=0;exitX=0.25;exitY=0;exitDx=0;exitDy=0;strokeColor=light-dark(#000000,#000000);entryPerimeter=0;" edge="1" parent="1" source="eqKTQkAIwk5ydLmsgt9G-6" target="eqKTQkAIwk5ydLmsgt9G-3">
          <mxGeometry width="50" height="50" relative="1" as="geometry">
            <mxPoint x="516" y="316" as="sourcePoint" />
            <mxPoint x="500" y="290" as="targetPoint" />
          </mxGeometry>
        </mxCell>
        <mxCell id="eqKTQkAIwk5ydLmsgt9G-19" value="" style="endArrow=none;html=1;rounded=0;entryX=0.5;entryY=1;entryDx=0;entryDy=0;exitX=0.447;exitY=-0.006;exitDx=0;exitDy=0;strokeColor=light-dark(#000000,#000000);exitPerimeter=0;" edge="1" parent="1" source="eqKTQkAIwk5ydLmsgt9G-6" target="eqKTQkAIwk5ydLmsgt9G-12">
          <mxGeometry width="50" height="50" relative="1" as="geometry">
            <mxPoint x="546" y="236" as="sourcePoint" />
            <mxPoint x="530" y="210" as="targetPoint" />
          </mxGeometry>
        </mxCell>
        <mxCell id="eqKTQkAIwk5ydLmsgt9G-21" value="" style="endArrow=none;html=1;rounded=0;entryX=0.5;entryY=1;entryDx=0;entryDy=0;strokeColor=light-dark(#000000,#000000);" edge="1" parent="1" target="eqKTQkAIwk5ydLmsgt9G-9">
          <mxGeometry width="50" height="50" relative="1" as="geometry">
            <mxPoint x="570" y="240" as="sourcePoint" />
            <mxPoint x="550" y="230" as="targetPoint" />
          </mxGeometry>
        </mxCell>
        <mxCell id="eqKTQkAIwk5ydLmsgt9G-22" value="" style="endArrow=none;html=1;rounded=0;entryX=0;entryY=1;entryDx=0;entryDy=0;exitX=0.75;exitY=0;exitDx=0;exitDy=0;strokeColor=light-dark(#000000,#000000);" edge="1" parent="1" source="eqKTQkAIwk5ydLmsgt9G-6" target="eqKTQkAIwk5ydLmsgt9G-11">
          <mxGeometry width="50" height="50" relative="1" as="geometry">
            <mxPoint x="606" y="256" as="sourcePoint" />
            <mxPoint x="590" y="230" as="targetPoint" />
          </mxGeometry>
        </mxCell>
        <mxCell id="eqKTQkAIwk5ydLmsgt9G-23" value="" style="endArrow=none;html=1;rounded=0;entryX=0.117;entryY=0.8;entryDx=0;entryDy=0;exitX=1;exitY=0;exitDx=0;exitDy=0;strokeColor=light-dark(#000000,#000000);entryPerimeter=0;" edge="1" parent="1" source="eqKTQkAIwk5ydLmsgt9G-6" target="eqKTQkAIwk5ydLmsgt9G-8">
          <mxGeometry width="50" height="50" relative="1" as="geometry">
            <mxPoint x="636" y="266" as="sourcePoint" />
            <mxPoint x="620" y="240" as="targetPoint" />
          </mxGeometry>
        </mxCell>
        <mxCell id="eqKTQkAIwk5ydLmsgt9G-25" value="&lt;font style=&quot;color: light-dark(rgb(0, 0, 0), rgb(0, 0, 0));&quot;&gt;Familia&lt;/font&gt;" style="rounded=0;whiteSpace=wrap;html=1;fillColor=light-dark(#FFFFFF,#FFFFFF);strokeColor=light-dark(#000000,#000000);" vertex="1" parent="1">
          <mxGeometry x="150" y="260" width="120" height="60" as="geometry" />
        </mxCell>
        <mxCell id="eqKTQkAIwk5ydLmsgt9G-26" value="&lt;font style=&quot;color: light-dark(rgb(0, 0, 0), rgb(0, 0, 0));&quot;&gt;Tipo Enfermedades&lt;/font&gt;" style="ellipse;whiteSpace=wrap;html=1;aspect=fixed;fillColor=light-dark(#FFFFFF,#FFFFFF);strokeColor=light-dark(#000000,#000000);" vertex="1" parent="1">
          <mxGeometry x="140" y="190" width="40" height="40" as="geometry" />
        </mxCell>
        <mxCell id="eqKTQkAIwk5ydLmsgt9G-27" value="" style="endArrow=none;html=1;rounded=0;entryX=0.65;entryY=0.983;entryDx=0;entryDy=0;exitX=0.25;exitY=0;exitDx=0;exitDy=0;strokeColor=light-dark(#000000,#000000);entryPerimeter=0;" edge="1" parent="1" target="eqKTQkAIwk5ydLmsgt9G-26">
          <mxGeometry width="50" height="50" relative="1" as="geometry">
            <mxPoint x="180" y="260" as="sourcePoint" />
            <mxPoint x="160" y="310" as="targetPoint" />
          </mxGeometry>
        </mxCell>
        <mxCell id="eqKTQkAIwk5ydLmsgt9G-28" value="Codigo" style="ellipse;whiteSpace=wrap;html=1;aspect=fixed;fillStyle=solid;gradientColor=none;fillColor=default;" vertex="1" parent="1">
          <mxGeometry x="210" y="200" width="40" height="40" as="geometry" />
        </mxCell>
        <mxCell id="eqKTQkAIwk5ydLmsgt9G-29" value="" style="endArrow=none;html=1;rounded=0;entryX=0.5;entryY=1;entryDx=0;entryDy=0;exitX=0;exitY=0;exitDx=0;exitDy=0;strokeColor=light-dark(#000000,#000000);" edge="1" parent="1" target="eqKTQkAIwk5ydLmsgt9G-28">
          <mxGeometry width="50" height="50" relative="1" as="geometry">
            <mxPoint x="235" y="260" as="sourcePoint" />
            <mxPoint x="335" y="410" as="targetPoint" />
          </mxGeometry>
        </mxCell>
        <mxCell id="eqKTQkAIwk5ydLmsgt9G-30" value="&lt;font style=&quot;color: light-dark(rgb(0, 0, 0), rgb(0, 0, 0));&quot;&gt;pertenece&lt;/font&gt;" style="rhombus;whiteSpace=wrap;html=1;fillColor=light-dark(#FFFFFF,#FFFFFF);strokeColor=light-dark(#000000,#000000);" vertex="1" parent="1">
          <mxGeometry x="340" y="240" width="80" height="80" as="geometry" />
        </mxCell>
        <mxCell id="eqKTQkAIwk5ydLmsgt9G-31" value="" style="endArrow=none;html=1;rounded=0;exitX=1;exitY=0.5;exitDx=0;exitDy=0;entryX=0;entryY=0.5;entryDx=0;entryDy=0;strokeColor=light-dark(#000000,#000000);" edge="1" parent="1" source="eqKTQkAIwk5ydLmsgt9G-30" target="eqKTQkAIwk5ydLmsgt9G-6">
          <mxGeometry width="50" height="50" relative="1" as="geometry">
            <mxPoint x="430" y="290" as="sourcePoint" />
            <mxPoint x="480" y="240" as="targetPoint" />
          </mxGeometry>
        </mxCell>
        <mxCell id="eqKTQkAIwk5ydLmsgt9G-32" value="" style="endArrow=none;html=1;rounded=0;exitX=1;exitY=0.5;exitDx=0;exitDy=0;entryX=0;entryY=0.5;entryDx=0;entryDy=0;strokeColor=light-dark(#000000,#000000);" edge="1" parent="1" target="eqKTQkAIwk5ydLmsgt9G-30">
          <mxGeometry width="50" height="50" relative="1" as="geometry">
            <mxPoint x="270" y="285" as="sourcePoint" />
            <mxPoint x="340" y="275" as="targetPoint" />
          </mxGeometry>
        </mxCell>
        <mxCell id="eqKTQkAIwk5ydLmsgt9G-33" value="&lt;font style=&quot;color: light-dark(rgb(0, 0, 0), rgb(0, 0, 0));&quot;&gt;(1:1)&lt;/font&gt;" style="text;html=1;align=center;verticalAlign=middle;whiteSpace=wrap;rounded=0;" vertex="1" parent="1">
          <mxGeometry x="270" y="260" width="40" height="20" as="geometry" />
        </mxCell>
        <mxCell id="eqKTQkAIwk5ydLmsgt9G-34" value="&lt;font style=&quot;color: light-dark(rgb(0, 0, 0), rgb(0, 0, 0));&quot;&gt;(1:N)&lt;/font&gt;" style="text;html=1;align=center;verticalAlign=middle;whiteSpace=wrap;rounded=0;" vertex="1" parent="1">
          <mxGeometry x="450" y="270" width="40" height="20" as="geometry" />
        </mxCell>
        <mxCell id="eqKTQkAIwk5ydLmsgt9G-35" value="" style="triangle;whiteSpace=wrap;html=1;rotation=90;strokeColor=light-dark(#000000,#000000);fillColor=light-dark(#FFFFFF,#FFFFFF);" vertex="1" parent="1">
          <mxGeometry x="525" y="340" width="60" height="80" as="geometry" />
        </mxCell>
        <mxCell id="eqKTQkAIwk5ydLmsgt9G-36" value="" style="ellipse;whiteSpace=wrap;html=1;aspect=fixed;fillStyle=solid;gradientColor=none;fillColor=light-dark(#FFFFFF,#FFFFFF);strokeColor=light-dark(#000000,#000000);" vertex="1" parent="1">
          <mxGeometry x="545" y="330" width="20" height="20" as="geometry" />
        </mxCell>
        <mxCell id="eqKTQkAIwk5ydLmsgt9G-37" value="" style="endArrow=none;html=1;rounded=0;entryX=0.5;entryY=1;entryDx=0;entryDy=0;exitX=0.5;exitY=0;exitDx=0;exitDy=0;strokeColor=light-dark(#000000,#000000);" edge="1" parent="1" source="eqKTQkAIwk5ydLmsgt9G-36" target="eqKTQkAIwk5ydLmsgt9G-6">
          <mxGeometry width="50" height="50" relative="1" as="geometry">
            <mxPoint x="540" y="380" as="sourcePoint" />
            <mxPoint x="590" y="330" as="targetPoint" />
          </mxGeometry>
        </mxCell>
        <mxCell id="eqKTQkAIwk5ydLmsgt9G-38" value="&lt;font style=&quot;color: light-dark(rgb(0, 0, 0), rgb(0, 0, 0));&quot;&gt;Venta Libre&lt;/font&gt;" style="rounded=0;whiteSpace=wrap;html=1;fillColor=light-dark(#FFFFFF,#FFFFFF);strokeColor=light-dark(#000000,#000000);" vertex="1" parent="1">
          <mxGeometry x="450" y="440" width="85" height="30" as="geometry" />
        </mxCell>
        <mxCell id="eqKTQkAIwk5ydLmsgt9G-39" value="&lt;font style=&quot;color: light-dark(rgb(0, 0, 0), rgb(0, 0, 0));&quot;&gt;Receta Medica&lt;/font&gt;" style="rounded=0;whiteSpace=wrap;html=1;fillColor=light-dark(#FFFFFF,#FFFFFF);strokeColor=light-dark(#000000,#000000);" vertex="1" parent="1">
          <mxGeometry x="580" y="440" width="85" height="30" as="geometry" />
        </mxCell>
        <mxCell id="eqKTQkAIwk5ydLmsgt9G-40" value="" style="endArrow=none;html=1;rounded=0;entryX=0.5;entryY=1;entryDx=0;entryDy=0;exitX=0.5;exitY=0;exitDx=0;exitDy=0;strokeColor=light-dark(#000000,#000000);" edge="1" parent="1" source="eqKTQkAIwk5ydLmsgt9G-38" target="eqKTQkAIwk5ydLmsgt9G-35">
          <mxGeometry width="50" height="50" relative="1" as="geometry">
            <mxPoint x="570" y="480" as="sourcePoint" />
            <mxPoint x="620" y="430" as="targetPoint" />
          </mxGeometry>
        </mxCell>
        <mxCell id="eqKTQkAIwk5ydLmsgt9G-41" value="" style="endArrow=none;html=1;rounded=0;entryX=0.5;entryY=0;entryDx=0;entryDy=0;exitX=0.25;exitY=0;exitDx=0;exitDy=0;strokeColor=light-dark(#000000,#000000);" edge="1" parent="1" source="eqKTQkAIwk5ydLmsgt9G-39" target="eqKTQkAIwk5ydLmsgt9G-35">
          <mxGeometry width="50" height="50" relative="1" as="geometry">
            <mxPoint x="590" y="550" as="sourcePoint" />
            <mxPoint x="632" y="490" as="targetPoint" />
          </mxGeometry>
        </mxCell>
        <mxCell id="eqKTQkAIwk5ydLmsgt9G-42" value="&lt;font style=&quot;color: light-dark(rgb(0, 0, 0), rgb(0, 0, 0));&quot;&gt;Laboratorio&lt;/font&gt;" style="rounded=0;whiteSpace=wrap;html=1;fillColor=light-dark(#FFFFFF,#FFFFFF);strokeColor=light-dark(#000000,#000000);" vertex="1" parent="1">
          <mxGeometry x="830" y="230" width="120" height="60" as="geometry" />
        </mxCell>
        <mxCell id="eqKTQkAIwk5ydLmsgt9G-45" value="&lt;font style=&quot;color: light-dark(rgb(0, 0, 0), rgb(0, 0, 0));&quot;&gt;provee&lt;/font&gt;" style="rhombus;whiteSpace=wrap;html=1;fillColor=light-dark(#FFFFFF,#FFFFFF);strokeColor=light-dark(#000000,#000000);" vertex="1" parent="1">
          <mxGeometry x="680" y="220" width="80" height="80" as="geometry" />
        </mxCell>
        <mxCell id="eqKTQkAIwk5ydLmsgt9G-46" value="" style="endArrow=none;html=1;rounded=0;exitX=1;exitY=0.5;exitDx=0;exitDy=0;entryX=0;entryY=0.75;entryDx=0;entryDy=0;strokeColor=light-dark(#000000,#000000);" edge="1" parent="1" source="eqKTQkAIwk5ydLmsgt9G-45" target="eqKTQkAIwk5ydLmsgt9G-42">
          <mxGeometry width="50" height="50" relative="1" as="geometry">
            <mxPoint x="770" y="270" as="sourcePoint" />
            <mxPoint x="830" y="250" as="targetPoint" />
          </mxGeometry>
        </mxCell>
        <mxCell id="eqKTQkAIwk5ydLmsgt9G-47" value="" style="endArrow=none;html=1;rounded=0;exitX=1;exitY=0.5;exitDx=0;exitDy=0;entryX=0;entryY=0.5;entryDx=0;entryDy=0;strokeColor=light-dark(#000000,#000000);" edge="1" parent="1" target="eqKTQkAIwk5ydLmsgt9G-45">
          <mxGeometry width="50" height="50" relative="1" as="geometry">
            <mxPoint x="610" y="265" as="sourcePoint" />
            <mxPoint x="680" y="255" as="targetPoint" />
          </mxGeometry>
        </mxCell>
        <mxCell id="eqKTQkAIwk5ydLmsgt9G-48" value="&lt;font style=&quot;color: light-dark(rgb(0, 0, 0), rgb(0, 0, 0));&quot;&gt;(1:N)&lt;/font&gt;" style="text;html=1;align=center;verticalAlign=middle;whiteSpace=wrap;rounded=0;" vertex="1" parent="1">
          <mxGeometry x="610" y="240" width="40" height="20" as="geometry" />
        </mxCell>
        <mxCell id="eqKTQkAIwk5ydLmsgt9G-49" value="&lt;font style=&quot;color: light-dark(rgb(0, 0, 0), rgb(0, 0, 0));&quot;&gt;(1:N)&lt;/font&gt;" style="text;html=1;align=center;verticalAlign=middle;whiteSpace=wrap;rounded=0;" vertex="1" parent="1">
          <mxGeometry x="790" y="250" width="40" height="20" as="geometry" />
        </mxCell>
        <mxCell id="eqKTQkAIwk5ydLmsgt9G-50" value="Codigo" style="ellipse;whiteSpace=wrap;html=1;aspect=fixed;fillStyle=solid;gradientColor=none;fillColor=default;" vertex="1" parent="1">
          <mxGeometry x="790" y="170" width="40" height="40" as="geometry" />
        </mxCell>
        <mxCell id="eqKTQkAIwk5ydLmsgt9G-51" value="&lt;font style=&quot;color: light-dark(rgb(0, 0, 0), rgb(0, 0, 0));&quot;&gt;Nombre&lt;/font&gt;" style="ellipse;whiteSpace=wrap;html=1;aspect=fixed;fillColor=light-dark(#FFFFFF,#FFFFFF);strokeColor=light-dark(#000000,#000000);" vertex="1" parent="1">
          <mxGeometry x="830" y="160" width="40" height="40" as="geometry" />
        </mxCell>
        <mxCell id="eqKTQkAIwk5ydLmsgt9G-52" value="&lt;font style=&quot;color: light-dark(rgb(0, 0, 0), rgb(0, 0, 0));&quot;&gt;Direccion&lt;/font&gt;" style="ellipse;whiteSpace=wrap;html=1;aspect=fixed;fillColor=light-dark(#FFFFFF,#FFFFFF);strokeColor=light-dark(#000000,#000000);" vertex="1" parent="1">
          <mxGeometry x="920" y="150" width="40" height="40" as="geometry" />
        </mxCell>
        <mxCell id="eqKTQkAIwk5ydLmsgt9G-53" value="&lt;font style=&quot;color: light-dark(rgb(0, 0, 0), rgb(0, 0, 0));&quot;&gt;Fax&lt;/font&gt;" style="ellipse;whiteSpace=wrap;html=1;aspect=fixed;fillColor=light-dark(#FFFFFF,#FFFFFF);strokeColor=light-dark(#000000,#000000);" vertex="1" parent="1">
          <mxGeometry x="970" y="160" width="40" height="40" as="geometry" />
        </mxCell>
        <mxCell id="eqKTQkAIwk5ydLmsgt9G-54" value="&lt;font style=&quot;color: light-dark(rgb(0, 0, 0), rgb(0, 0, 0));&quot;&gt;Telefono&lt;/font&gt;" style="ellipse;whiteSpace=wrap;html=1;aspect=fixed;fillColor=light-dark(#FFFFFF,#FFFFFF);strokeColor=light-dark(#000000,#000000);" vertex="1" parent="1">
          <mxGeometry x="870" y="150" width="40" height="40" as="geometry" />
        </mxCell>
        <mxCell id="eqKTQkAIwk5ydLmsgt9G-55" value="" style="endArrow=none;html=1;rounded=0;entryX=1;entryY=1;entryDx=0;entryDy=0;exitX=0;exitY=0;exitDx=0;exitDy=0;strokeColor=light-dark(#000000,#000000);" edge="1" parent="1" target="eqKTQkAIwk5ydLmsgt9G-50">
          <mxGeometry width="50" height="50" relative="1" as="geometry">
            <mxPoint x="840" y="230" as="sourcePoint" />
            <mxPoint x="940" y="380" as="targetPoint" />
          </mxGeometry>
        </mxCell>
        <mxCell id="eqKTQkAIwk5ydLmsgt9G-56" value="" style="endArrow=none;html=1;rounded=0;entryX=0.65;entryY=0.983;entryDx=0;entryDy=0;exitX=0.25;exitY=0;exitDx=0;exitDy=0;strokeColor=light-dark(#000000,#000000);entryPerimeter=0;" edge="1" parent="1" target="eqKTQkAIwk5ydLmsgt9G-51">
          <mxGeometry width="50" height="50" relative="1" as="geometry">
            <mxPoint x="870" y="230" as="sourcePoint" />
            <mxPoint x="850" y="280" as="targetPoint" />
          </mxGeometry>
        </mxCell>
        <mxCell id="eqKTQkAIwk5ydLmsgt9G-57" value="" style="endArrow=none;html=1;rounded=0;entryX=0.5;entryY=1;entryDx=0;entryDy=0;exitX=0.447;exitY=-0.006;exitDx=0;exitDy=0;strokeColor=light-dark(#000000,#000000);exitPerimeter=0;" edge="1" parent="1" target="eqKTQkAIwk5ydLmsgt9G-54">
          <mxGeometry width="50" height="50" relative="1" as="geometry">
            <mxPoint x="894" y="230" as="sourcePoint" />
            <mxPoint x="880" y="200" as="targetPoint" />
          </mxGeometry>
        </mxCell>
        <mxCell id="eqKTQkAIwk5ydLmsgt9G-58" value="" style="endArrow=none;html=1;rounded=0;entryX=0.5;entryY=1;entryDx=0;entryDy=0;strokeColor=light-dark(#000000,#000000);" edge="1" parent="1" target="eqKTQkAIwk5ydLmsgt9G-52">
          <mxGeometry width="50" height="50" relative="1" as="geometry">
            <mxPoint x="930" y="230" as="sourcePoint" />
            <mxPoint x="910" y="220" as="targetPoint" />
          </mxGeometry>
        </mxCell>
        <mxCell id="eqKTQkAIwk5ydLmsgt9G-59" value="" style="endArrow=none;html=1;rounded=0;entryX=0;entryY=1;entryDx=0;entryDy=0;exitX=0.75;exitY=0;exitDx=0;exitDy=0;strokeColor=light-dark(#000000,#000000);" edge="1" parent="1" target="eqKTQkAIwk5ydLmsgt9G-53">
          <mxGeometry width="50" height="50" relative="1" as="geometry">
            <mxPoint x="950" y="230" as="sourcePoint" />
            <mxPoint x="960" y="220" as="targetPoint" />
          </mxGeometry>
        </mxCell>
        <mxCell id="eqKTQkAIwk5ydLmsgt9G-60" value="&lt;font style=&quot;color: light-dark(rgb(0, 0, 0), rgb(0, 0, 0));&quot;&gt;Contacto&lt;/font&gt;" style="ellipse;whiteSpace=wrap;html=1;aspect=fixed;fillColor=light-dark(#FFFFFF,#FFFFFF);strokeColor=light-dark(#000000,#000000);" vertex="1" parent="1">
          <mxGeometry x="990" y="200" width="40" height="40" as="geometry" />
        </mxCell>
        <mxCell id="eqKTQkAIwk5ydLmsgt9G-61" value="" style="endArrow=none;html=1;rounded=0;entryX=0;entryY=1;entryDx=0;entryDy=0;exitX=1;exitY=0.25;exitDx=0;exitDy=0;strokeColor=light-dark(#000000,#000000);" edge="1" parent="1" source="eqKTQkAIwk5ydLmsgt9G-42" target="eqKTQkAIwk5ydLmsgt9G-60">
          <mxGeometry width="50" height="50" relative="1" as="geometry">
            <mxPoint x="970" y="280" as="sourcePoint" />
            <mxPoint x="980" y="270" as="targetPoint" />
          </mxGeometry>
        </mxCell>
        <mxCell id="eqKTQkAIwk5ydLmsgt9G-64" value="&lt;font style=&quot;color: light-dark(rgb(0, 0, 0), rgb(0, 0, 0));&quot;&gt;compra&lt;/font&gt;" style="rhombus;whiteSpace=wrap;html=1;fillColor=light-dark(#FFFFFF,#FFFFFF);strokeColor=light-dark(#000000,#000000);" vertex="1" parent="1">
          <mxGeometry x="690" y="340" width="80" height="80" as="geometry" />
        </mxCell>
        <mxCell id="eqKTQkAIwk5ydLmsgt9G-65" value="" style="endArrow=none;html=1;rounded=0;exitX=0.5;exitY=1;exitDx=0;exitDy=0;strokeColor=light-dark(#000000,#000000);" edge="1" parent="1" source="eqKTQkAIwk5ydLmsgt9G-64">
          <mxGeometry width="50" height="50" relative="1" as="geometry">
            <mxPoint x="830" y="360" as="sourcePoint" />
            <mxPoint x="800" y="450" as="targetPoint" />
          </mxGeometry>
        </mxCell>
        <mxCell id="eqKTQkAIwk5ydLmsgt9G-66" value="" style="endArrow=none;html=1;rounded=0;exitX=1;exitY=1;exitDx=0;exitDy=0;entryX=0.5;entryY=0;entryDx=0;entryDy=0;strokeColor=light-dark(#000000,#000000);" edge="1" parent="1" source="eqKTQkAIwk5ydLmsgt9G-6" target="eqKTQkAIwk5ydLmsgt9G-64">
          <mxGeometry width="50" height="50" relative="1" as="geometry">
            <mxPoint x="670" y="355" as="sourcePoint" />
            <mxPoint x="740" y="345" as="targetPoint" />
          </mxGeometry>
        </mxCell>
        <mxCell id="eqKTQkAIwk5ydLmsgt9G-67" value="&lt;font style=&quot;color: light-dark(rgb(0, 0, 0), rgb(0, 0, 0));&quot;&gt;(1:N)&lt;/font&gt;" style="text;html=1;align=center;verticalAlign=middle;whiteSpace=wrap;rounded=0;" vertex="1" parent="1">
          <mxGeometry x="610" y="280" width="40" height="20" as="geometry" />
        </mxCell>
        <mxCell id="eqKTQkAIwk5ydLmsgt9G-68" value="&lt;font style=&quot;color: light-dark(rgb(0, 0, 0), rgb(0, 0, 0));&quot;&gt;(1:N)&lt;/font&gt;" style="text;html=1;align=center;verticalAlign=middle;whiteSpace=wrap;rounded=0;" vertex="1" parent="1">
          <mxGeometry x="790" y="430" width="40" height="20" as="geometry" />
        </mxCell>
        <mxCell id="eqKTQkAIwk5ydLmsgt9G-70" value="&lt;font style=&quot;color: light-dark(rgb(0, 0, 0), rgb(0, 0, 0));&quot;&gt;Cliente&lt;/font&gt;" style="rounded=0;whiteSpace=wrap;html=1;fillColor=light-dark(#FFFFFF,#FFFFFF);strokeColor=light-dark(#000000,#000000);" vertex="1" parent="1">
          <mxGeometry x="800" y="450" width="120" height="60" as="geometry" />
        </mxCell>
        <mxCell id="eqKTQkAIwk5ydLmsgt9G-71" value="&lt;font style=&quot;color: light-dark(rgb(0, 0, 0), rgb(0, 0, 0));&quot;&gt;Unidades&lt;/font&gt;" style="ellipse;whiteSpace=wrap;html=1;aspect=fixed;fillColor=light-dark(#FFFFFF,#FFFFFF);strokeColor=light-dark(#000000,#000000);" vertex="1" parent="1">
          <mxGeometry x="830" y="350" width="40" height="40" as="geometry" />
        </mxCell>
        <mxCell id="eqKTQkAIwk5ydLmsgt9G-72" value="&lt;font style=&quot;color: light-dark(rgb(0, 0, 0), rgb(0, 0, 0));&quot;&gt;Fecha&lt;/font&gt;" style="ellipse;whiteSpace=wrap;html=1;aspect=fixed;fillColor=light-dark(#FFFFFF,#FFFFFF);strokeColor=light-dark(#000000,#000000);" vertex="1" parent="1">
          <mxGeometry x="790" y="310" width="40" height="40" as="geometry" />
        </mxCell>
        <mxCell id="eqKTQkAIwk5ydLmsgt9G-73" value="" style="endArrow=none;html=1;rounded=0;entryX=0;entryY=1;entryDx=0;entryDy=0;exitX=0.75;exitY=0;exitDx=0;exitDy=0;strokeColor=light-dark(#000000,#000000);" edge="1" parent="1" target="eqKTQkAIwk5ydLmsgt9G-72">
          <mxGeometry width="50" height="50" relative="1" as="geometry">
            <mxPoint x="770" y="380" as="sourcePoint" />
            <mxPoint x="780" y="370" as="targetPoint" />
          </mxGeometry>
        </mxCell>
        <mxCell id="eqKTQkAIwk5ydLmsgt9G-74" value="" style="endArrow=none;html=1;rounded=0;entryX=0.117;entryY=0.8;entryDx=0;entryDy=0;strokeColor=light-dark(#000000,#000000);entryPerimeter=0;" edge="1" parent="1" target="eqKTQkAIwk5ydLmsgt9G-71">
          <mxGeometry width="50" height="50" relative="1" as="geometry">
            <mxPoint x="770" y="380" as="sourcePoint" />
            <mxPoint x="810" y="380" as="targetPoint" />
          </mxGeometry>
        </mxCell>
        <mxCell id="eqKTQkAIwk5ydLmsgt9G-75" value="&lt;font style=&quot;color: light-dark(rgb(0, 0, 0), rgb(0, 0, 0));&quot;&gt;Cliente_credito&lt;/font&gt;" style="shape=process;whiteSpace=wrap;html=1;backgroundOutline=1;fillColor=light-dark(#FFFFFF,#FFFFFF);strokeColor=light-dark(#000000,#000000);" vertex="1" parent="1">
          <mxGeometry x="800" y="630" width="120" height="60" as="geometry" />
        </mxCell>
        <mxCell id="eqKTQkAIwk5ydLmsgt9G-76" value="&lt;font style=&quot;color: light-dark(rgb(0, 0, 0), rgb(0, 0, 0));&quot;&gt;pertenece&lt;/font&gt;" style="rhombus;whiteSpace=wrap;html=1;fillColor=light-dark(#FFFFFF,#FFFFFF);strokeColor=light-dark(#000000,#000000);" vertex="1" parent="1">
          <mxGeometry x="820" y="530" width="80" height="80" as="geometry" />
        </mxCell>
        <mxCell id="eqKTQkAIwk5ydLmsgt9G-77" value="" style="endArrow=none;html=1;rounded=0;exitX=0.5;exitY=1;exitDx=0;exitDy=0;strokeColor=light-dark(#000000,#000000);entryX=0.5;entryY=0;entryDx=0;entryDy=0;" edge="1" parent="1" source="eqKTQkAIwk5ydLmsgt9G-76" target="eqKTQkAIwk5ydLmsgt9G-75">
          <mxGeometry width="50" height="50" relative="1" as="geometry">
            <mxPoint x="1130" y="610" as="sourcePoint" />
            <mxPoint x="1100" y="700" as="targetPoint" />
          </mxGeometry>
        </mxCell>
        <mxCell id="eqKTQkAIwk5ydLmsgt9G-78" value="" style="endArrow=none;html=1;rounded=0;exitX=0.5;exitY=1;exitDx=0;exitDy=0;entryX=0.5;entryY=0;entryDx=0;entryDy=0;strokeColor=light-dark(#000000,#000000);" edge="1" parent="1" source="eqKTQkAIwk5ydLmsgt9G-70" target="eqKTQkAIwk5ydLmsgt9G-76">
          <mxGeometry width="50" height="50" relative="1" as="geometry">
            <mxPoint x="910" y="550" as="sourcePoint" />
            <mxPoint x="1040" y="595" as="targetPoint" />
          </mxGeometry>
        </mxCell>
        <mxCell id="eqKTQkAIwk5ydLmsgt9G-79" value="&lt;font style=&quot;color: light-dark(rgb(0, 0, 0), rgb(0, 0, 0));&quot;&gt;(1:1)&lt;/font&gt;" style="text;html=1;align=center;verticalAlign=middle;whiteSpace=wrap;rounded=0;" vertex="1" parent="1">
          <mxGeometry x="860" y="510" width="40" height="20" as="geometry" />
        </mxCell>
        <mxCell id="eqKTQkAIwk5ydLmsgt9G-82" value="" style="edgeStyle=orthogonalEdgeStyle;rounded=0;orthogonalLoop=1;jettySize=auto;html=1;" edge="1" parent="1" source="eqKTQkAIwk5ydLmsgt9G-80" target="eqKTQkAIwk5ydLmsgt9G-75">
          <mxGeometry relative="1" as="geometry" />
        </mxCell>
        <mxCell id="eqKTQkAIwk5ydLmsgt9G-80" value="&lt;font style=&quot;color: light-dark(rgb(0, 0, 0), rgb(0, 0, 0));&quot;&gt;(0:N)&lt;/font&gt;" style="text;html=1;align=center;verticalAlign=middle;whiteSpace=wrap;rounded=0;" vertex="1" parent="1">
          <mxGeometry x="860" y="610" width="40" height="20" as="geometry" />
        </mxCell>
        <mxCell id="eqKTQkAIwk5ydLmsgt9G-84" value="ID" style="ellipse;whiteSpace=wrap;html=1;aspect=fixed;fillStyle=solid;gradientColor=none;fillColor=default;" vertex="1" parent="1">
          <mxGeometry x="680" y="630" width="40" height="40" as="geometry" />
        </mxCell>
        <mxCell id="eqKTQkAIwk5ydLmsgt9G-85" value="&lt;font style=&quot;color: light-dark(rgb(0, 0, 0), rgb(0, 0, 0));&quot;&gt;Datos Bancarios&lt;/font&gt;" style="ellipse;whiteSpace=wrap;html=1;aspect=fixed;fillColor=light-dark(#FFFFFF,#FFFFFF);strokeColor=light-dark(#000000,#000000);" vertex="1" parent="1">
          <mxGeometry x="690" y="580" width="40" height="40" as="geometry" />
        </mxCell>
        <mxCell id="eqKTQkAIwk5ydLmsgt9G-86" value="&lt;font style=&quot;color: light-dark(rgb(0, 0, 0), rgb(0, 0, 0));&quot;&gt;Fechas&lt;/font&gt;" style="ellipse;whiteSpace=wrap;html=1;aspect=fixed;fillColor=light-dark(#FFFFFF,#FFFFFF);strokeColor=light-dark(#000000,#000000);" vertex="1" parent="1">
          <mxGeometry x="730" y="540" width="40" height="40" as="geometry" />
        </mxCell>
        <mxCell id="eqKTQkAIwk5ydLmsgt9G-87" value="" style="endArrow=none;html=1;rounded=0;entryX=1;entryY=1;entryDx=0;entryDy=0;exitX=0;exitY=0.5;exitDx=0;exitDy=0;strokeColor=light-dark(#000000,#000000);" edge="1" parent="1" source="eqKTQkAIwk5ydLmsgt9G-75" target="eqKTQkAIwk5ydLmsgt9G-84">
          <mxGeometry width="50" height="50" relative="1" as="geometry">
            <mxPoint x="720" y="640" as="sourcePoint" />
            <mxPoint x="820" y="790" as="targetPoint" />
          </mxGeometry>
        </mxCell>
        <mxCell id="eqKTQkAIwk5ydLmsgt9G-88" value="" style="endArrow=none;html=1;rounded=0;entryX=0.65;entryY=0.983;entryDx=0;entryDy=0;exitX=0;exitY=0.25;exitDx=0;exitDy=0;strokeColor=light-dark(#000000,#000000);entryPerimeter=0;" edge="1" parent="1" source="eqKTQkAIwk5ydLmsgt9G-75" target="eqKTQkAIwk5ydLmsgt9G-85">
          <mxGeometry width="50" height="50" relative="1" as="geometry">
            <mxPoint x="750" y="640" as="sourcePoint" />
            <mxPoint x="730" y="690" as="targetPoint" />
          </mxGeometry>
        </mxCell>
        <mxCell id="eqKTQkAIwk5ydLmsgt9G-89" value="" style="endArrow=none;html=1;rounded=0;entryX=0.5;entryY=1;entryDx=0;entryDy=0;strokeColor=light-dark(#000000,#000000);exitX=0;exitY=0;exitDx=0;exitDy=0;" edge="1" parent="1" source="eqKTQkAIwk5ydLmsgt9G-75" target="eqKTQkAIwk5ydLmsgt9G-86">
          <mxGeometry width="50" height="50" relative="1" as="geometry">
            <mxPoint x="774" y="640" as="sourcePoint" />
            <mxPoint x="760" y="610" as="targetPoint" />
          </mxGeometry>
        </mxCell>
        <mxCell id="eqKTQkAIwk5ydLmsgt9G-90" value="" style="endArrow=none;html=1;rounded=0;strokeColor=light-dark(#000000,#000000);" edge="1" parent="1">
          <mxGeometry width="50" height="50" relative="1" as="geometry">
            <mxPoint x="475" y="400" as="sourcePoint" />
            <mxPoint x="625" y="400" as="targetPoint" />
            <Array as="points">
              <mxPoint x="555" y="420" />
            </Array>
          </mxGeometry>
        </mxCell>
      </root>
    </mxGraphModel>
  </diagram>
</mxfile>
